<svg width="562" height="392" viewBox="0 0 562 392" fill="none" xmlns="http://www.w3.org/2000/svg">
<g clip-path="url(#clip0_221_1654)">
<rect width="562" height="392" rx="14" fill="white"/>
<g filter="url(#filter0_dddd_221_1654)">
<rect x="26" y="29" width="160" height="333" rx="18" fill="url(#paint0_linear_221_1654)"/>
<rect x="26.5" y="29.5" width="159" height="332" rx="17.5" stroke="url(#paint1_linear_221_1654)"/>
<rect x="41" y="54" width="130" height="10" rx="5" fill="#CDF8DC"/>
<rect x="41" y="72" width="130" height="23" rx="3" fill="#CDF8DC"/>
<rect x="41" y="127" width="43" height="7" rx="3.5" fill="#CDF8DC"/>
<rect x="41" y="146" width="10" height="9" rx="3" fill="#CDF8DC"/>
<rect x="41" y="216" width="10" height="9" rx="3" fill="#CDF8DC"/>
<rect x="41" y="236" width="10" height="9" rx="3" fill="#CDF8DC"/>
<rect x="41" y="256" width="10" height="9" rx="3" fill="#CDF8DC"/>
<rect x="41" y="276" width="10" height="9" rx="3" fill="#CDF8DC"/>
<rect x="41" y="296" width="10" height="9" rx="3" fill="#CDF8DC"/>
<rect x="58" y="147" width="106" height="7" rx="3.5" fill="#CDF8DC"/>
<rect x="58" y="217" width="106" height="7" rx="3.5" fill="#CDF8DC"/>
<rect x="58" y="237" width="106" height="7" rx="3.5" fill="#CDF8DC"/>
<rect x="58" y="257" width="106" height="7" rx="3.5" fill="#CDF8DC"/>
<rect x="58" y="277" width="106" height="7" rx="3.5" fill="#CDF8DC"/>
<rect x="58" y="297" width="106" height="7" rx="3.5" fill="#CDF8DC"/>
</g>
<g filter="url(#filter1_dddd_221_1654)">
<rect x="57" y="169" width="108" height="32" rx="9" fill="url(#paint2_linear_221_1654)"/>
<rect x="57.5" y="169.5" width="107" height="31" rx="8.5" stroke="url(#paint3_linear_221_1654)" stroke-opacity="0.36"/>
<path d="M89.732 190.168C89.0787 190.168 88.472 190.047 87.912 189.804C87.352 189.552 86.876 189.211 86.484 188.782C86.092 188.353 85.8027 187.858 85.616 187.298L87.016 186.71C87.268 187.354 87.6367 187.849 88.122 188.194C88.6073 188.539 89.1673 188.712 89.802 188.712C90.1753 188.712 90.502 188.656 90.782 188.544C91.062 188.423 91.2767 188.255 91.426 188.04C91.5847 187.825 91.664 187.578 91.664 187.298C91.664 186.915 91.5567 186.612 91.342 186.388C91.1273 186.164 90.81 185.987 90.39 185.856L88.43 185.24C87.646 184.997 87.0487 184.629 86.638 184.134C86.2273 183.63 86.022 183.042 86.022 182.37C86.022 181.782 86.1667 181.269 86.456 180.83C86.7453 180.382 87.142 180.032 87.646 179.78C88.1593 179.528 88.7427 179.402 89.396 179.402C90.0213 179.402 90.5907 179.514 91.104 179.738C91.6173 179.953 92.056 180.251 92.42 180.634C92.7933 181.017 93.064 181.46 93.232 181.964L91.86 182.566C91.6547 182.015 91.3327 181.591 90.894 181.292C90.4647 180.993 89.9653 180.844 89.396 180.844C89.0507 180.844 88.7473 180.905 88.486 181.026C88.2247 181.138 88.0193 181.306 87.87 181.53C87.73 181.745 87.66 181.997 87.66 182.286C87.66 182.622 87.7673 182.921 87.982 183.182C88.1967 183.443 88.5233 183.639 88.962 183.77L90.782 184.344C91.6127 184.596 92.238 184.96 92.658 185.436C93.078 185.903 93.288 186.486 93.288 187.186C93.288 187.765 93.134 188.278 92.826 188.726C92.5273 189.174 92.112 189.529 91.58 189.79C91.048 190.042 90.432 190.168 89.732 190.168ZM98.5865 190.168C97.8305 190.168 97.1585 189.995 96.5705 189.65C95.9918 189.295 95.5298 188.819 95.1845 188.222C94.8485 187.625 94.6805 186.948 94.6805 186.192C94.6805 185.445 94.8485 184.773 95.1845 184.176C95.5205 183.579 95.9825 183.112 96.5705 182.776C97.1585 182.431 97.8305 182.258 98.5865 182.258C99.0998 182.258 99.5805 182.351 100.028 182.538C100.476 182.715 100.864 182.963 101.19 183.28C101.526 183.597 101.774 183.966 101.932 184.386L100.546 185.03C100.388 184.638 100.131 184.325 99.7765 184.092C99.4311 183.849 99.0345 183.728 98.5865 183.728C98.1571 183.728 97.7698 183.835 97.4245 184.05C97.0885 184.255 96.8225 184.549 96.6265 184.932C96.4305 185.305 96.3325 185.73 96.3325 186.206C96.3325 186.682 96.4305 187.111 96.6265 187.494C96.8225 187.867 97.0885 188.161 97.4245 188.376C97.7698 188.591 98.1571 188.698 98.5865 188.698C99.0438 188.698 99.4405 188.581 99.7765 188.348C100.122 188.105 100.378 187.783 100.546 187.382L101.932 188.04C101.783 188.441 101.54 188.805 101.204 189.132C100.878 189.449 100.49 189.701 100.042 189.888C99.5945 190.075 99.1091 190.168 98.5865 190.168ZM103.479 190V179.402H105.061V183.91L104.809 183.714C104.995 183.238 105.294 182.879 105.705 182.636C106.115 182.384 106.591 182.258 107.133 182.258C107.693 182.258 108.187 182.379 108.617 182.622C109.046 182.865 109.382 183.201 109.625 183.63C109.867 184.059 109.989 184.549 109.989 185.1V190H108.421V185.534C108.421 185.151 108.346 184.829 108.197 184.568C108.057 184.297 107.861 184.092 107.609 183.952C107.357 183.803 107.067 183.728 106.741 183.728C106.423 183.728 106.134 183.803 105.873 183.952C105.621 184.092 105.42 184.297 105.271 184.568C105.131 184.839 105.061 185.161 105.061 185.534V190H103.479ZM115.238 190.168C114.482 190.168 113.81 189.995 113.222 189.65C112.643 189.295 112.19 188.819 111.864 188.222C111.537 187.615 111.374 186.939 111.374 186.192C111.374 185.427 111.537 184.75 111.864 184.162C112.2 183.574 112.648 183.112 113.208 182.776C113.768 182.431 114.402 182.258 115.112 182.258C115.681 182.258 116.19 182.356 116.638 182.552C117.086 182.748 117.464 183.019 117.772 183.364C118.08 183.7 118.313 184.087 118.472 184.526C118.64 184.965 118.724 185.431 118.724 185.926C118.724 186.047 118.719 186.173 118.71 186.304C118.7 186.435 118.682 186.556 118.654 186.668H112.62V185.408H117.758L117.002 185.982C117.095 185.525 117.062 185.119 116.904 184.764C116.754 184.4 116.521 184.115 116.204 183.91C115.896 183.695 115.532 183.588 115.112 183.588C114.692 183.588 114.318 183.695 113.992 183.91C113.665 184.115 113.413 184.414 113.236 184.806C113.058 185.189 112.988 185.655 113.026 186.206C112.979 186.719 113.049 187.167 113.236 187.55C113.432 187.933 113.702 188.231 114.048 188.446C114.402 188.661 114.804 188.768 115.252 188.768C115.709 188.768 116.096 188.665 116.414 188.46C116.74 188.255 116.997 187.989 117.184 187.662L118.472 188.292C118.322 188.647 118.089 188.969 117.772 189.258C117.464 189.538 117.09 189.762 116.652 189.93C116.222 190.089 115.751 190.168 115.238 190.168ZM123.768 190.168C123.04 190.168 122.386 189.995 121.808 189.65C121.238 189.295 120.786 188.819 120.45 188.222C120.123 187.625 119.96 186.953 119.96 186.206C119.96 185.459 120.128 184.787 120.464 184.19C120.8 183.593 121.252 183.121 121.822 182.776C122.391 182.431 123.035 182.258 123.754 182.258C124.36 182.258 124.897 182.379 125.364 182.622C125.83 182.865 126.199 183.201 126.47 183.63L126.232 183.994V179.402H127.8V190H126.302V188.46L126.484 188.754C126.222 189.211 125.849 189.561 125.364 189.804C124.878 190.047 124.346 190.168 123.768 190.168ZM123.922 188.698C124.36 188.698 124.752 188.591 125.098 188.376C125.452 188.161 125.728 187.867 125.924 187.494C126.129 187.111 126.232 186.682 126.232 186.206C126.232 185.73 126.129 185.305 125.924 184.932C125.728 184.559 125.452 184.265 125.098 184.05C124.752 183.835 124.36 183.728 123.922 183.728C123.483 183.728 123.086 183.835 122.732 184.05C122.377 184.265 122.102 184.559 121.906 184.932C121.71 185.305 121.612 185.73 121.612 186.206C121.612 186.682 121.71 187.111 121.906 187.494C122.102 187.867 122.372 188.161 122.718 188.376C123.072 188.591 123.474 188.698 123.922 188.698ZM132.349 190.168C131.779 190.168 131.28 190.042 130.851 189.79C130.421 189.529 130.085 189.169 129.843 188.712C129.609 188.245 129.493 187.709 129.493 187.102V182.426H131.075V186.962C131.075 187.307 131.145 187.611 131.285 187.872C131.425 188.133 131.621 188.339 131.873 188.488C132.125 188.628 132.414 188.698 132.741 188.698C133.077 188.698 133.371 188.623 133.623 188.474C133.875 188.325 134.071 188.115 134.211 187.844C134.36 187.573 134.435 187.256 134.435 186.892V182.426H136.003V190H134.505V188.516L134.673 188.712C134.495 189.179 134.201 189.538 133.791 189.79C133.38 190.042 132.899 190.168 132.349 190.168ZM137.85 190V179.402H139.432V190H137.85ZM144.837 190.168C144.081 190.168 143.409 189.995 142.821 189.65C142.243 189.295 141.79 188.819 141.463 188.222C141.137 187.615 140.973 186.939 140.973 186.192C140.973 185.427 141.137 184.75 141.463 184.162C141.799 183.574 142.247 183.112 142.807 182.776C143.367 182.431 144.002 182.258 144.711 182.258C145.281 182.258 145.789 182.356 146.237 182.552C146.685 182.748 147.063 183.019 147.371 183.364C147.679 183.7 147.913 184.087 148.071 184.526C148.239 184.965 148.323 185.431 148.323 185.926C148.323 186.047 148.319 186.173 148.309 186.304C148.3 186.435 148.281 186.556 148.253 186.668H142.219V185.408H147.357L146.601 185.982C146.695 185.525 146.662 185.119 146.503 184.764C146.354 184.4 146.121 184.115 145.803 183.91C145.495 183.695 145.131 183.588 144.711 183.588C144.291 183.588 143.918 183.695 143.591 183.91C143.265 184.115 143.013 184.414 142.835 184.806C142.658 185.189 142.588 185.655 142.625 186.206C142.579 186.719 142.649 187.167 142.835 187.55C143.031 187.933 143.302 188.231 143.647 188.446C144.002 188.661 144.403 188.768 144.851 188.768C145.309 188.768 145.696 188.665 146.013 188.46C146.34 188.255 146.597 187.989 146.783 187.662L148.071 188.292C147.922 188.647 147.689 188.969 147.371 189.258C147.063 189.538 146.69 189.762 146.251 189.93C145.822 190.089 145.351 190.168 144.837 190.168ZM153.367 190.168C152.639 190.168 151.986 189.995 151.407 189.65C150.838 189.295 150.385 188.819 150.049 188.222C149.723 187.625 149.559 186.953 149.559 186.206C149.559 185.459 149.727 184.787 150.063 184.19C150.399 183.593 150.852 183.121 151.421 182.776C151.991 182.431 152.635 182.258 153.353 182.258C153.96 182.258 154.497 182.379 154.963 182.622C155.43 182.865 155.799 183.201 156.069 183.63L155.831 183.994V179.402H157.399V190H155.901V188.46L156.083 188.754C155.822 189.211 155.449 189.561 154.963 189.804C154.478 190.047 153.946 190.168 153.367 190.168ZM153.521 188.698C153.96 188.698 154.352 188.591 154.697 188.376C155.052 188.161 155.327 187.867 155.523 187.494C155.729 187.111 155.831 186.682 155.831 186.206C155.831 185.73 155.729 185.305 155.523 184.932C155.327 184.559 155.052 184.265 154.697 184.05C154.352 183.835 153.96 183.728 153.521 183.728C153.083 183.728 152.686 183.835 152.331 184.05C151.977 184.265 151.701 184.559 151.505 184.932C151.309 185.305 151.211 185.73 151.211 186.206C151.211 186.682 151.309 187.111 151.505 187.494C151.701 187.867 151.972 188.161 152.317 188.376C152.672 188.591 153.073 188.698 153.521 188.698Z" fill="#636363"/>
<path d="M65 185C65 185.788 65.1552 186.568 65.4567 187.296C65.7583 188.024 66.2002 188.685 66.7574 189.243C67.3145 189.8 67.9759 190.242 68.7039 190.543C69.4319 190.845 70.2121 191 71 191C71.7879 191 72.5681 190.845 73.2961 190.543C74.0241 190.242 74.6855 189.8 75.2426 189.243C75.7998 188.685 76.2417 188.024 76.5433 187.296C76.8448 186.568 77 185.788 77 185C77 183.409 76.3679 181.883 75.2426 180.757C74.1174 179.632 72.5913 179 71 179C69.4087 179 67.8826 179.632 66.7574 180.757C65.6321 181.883 65 183.409 65 185Z" stroke="#636363" stroke-linecap="round" stroke-linejoin="round"/>
<path d="M71 181.668V185.001L73 187.001" stroke="#636363" stroke-linecap="round" stroke-linejoin="round"/>
</g>
<path d="M374 191V258" stroke="url(#paint4_linear_221_1654)" stroke-width="2"/>
<g filter="url(#filter2_dddd_221_1654)">
<rect x="211" y="29" width="322" height="181" rx="18" fill="url(#paint5_linear_221_1654)"/>
<rect x="211.5" y="29.5" width="321" height="180" rx="17.5" stroke="url(#paint6_linear_221_1654)" stroke-opacity="0.47"/>
<g filter="url(#filter3_ddddd_221_1654)">
<rect x="226" y="39" width="291" height="70" rx="12" fill="white"/>
</g>
<rect x="226" y="120" width="82" height="10" rx="5" fill="#CDF8DC"/>
<rect x="226" y="141" width="291" height="6" rx="3" fill="#CDF8DC"/>
<rect x="226" y="151" width="161" height="6" rx="3" fill="#CDF8DC"/>
<rect x="483" y="120" width="34" height="10" rx="5" fill="#CDF8DC"/>
<circle cx="237.5" cy="173.5" r="8.5" fill="#CCF8DC"/>
<circle cx="259.5" cy="173.5" r="8.5" fill="#CCF8DC"/>
<circle cx="281.5" cy="173.5" r="8.5" fill="#CCF8DC"/>
<circle cx="303.5" cy="173.5" r="8.5" fill="#CCF8DC"/>
<g filter="url(#filter4_ii_221_1654)">
<rect x="424" y="155" width="95" height="32" rx="16" fill="#4FC97A"/>
<path d="M459.936 174V164.315H466.371V165.875H461.704V168.358H466.111V169.918H461.704V172.44H466.371V174H459.936ZM470.813 174.156C470.129 174.156 469.518 173.996 468.98 173.675C468.443 173.346 468.018 172.899 467.706 172.336C467.394 171.773 467.238 171.149 467.238 170.464C467.238 169.771 467.394 169.147 467.706 168.592C468.018 168.037 468.443 167.595 468.98 167.266C469.526 166.937 470.133 166.772 470.8 166.772C471.338 166.772 471.814 166.88 472.23 167.097C472.655 167.305 472.989 167.6 473.231 167.981L472.971 168.332V164.159H474.674V174H473.062V172.635L473.244 172.973C473.002 173.354 472.664 173.649 472.23 173.857C471.797 174.056 471.325 174.156 470.813 174.156ZM470.995 172.596C471.385 172.596 471.728 172.505 472.022 172.323C472.317 172.141 472.547 171.89 472.711 171.569C472.885 171.248 472.971 170.88 472.971 170.464C472.971 170.057 472.885 169.693 472.711 169.372C472.547 169.043 472.317 168.787 472.022 168.605C471.728 168.423 471.385 168.332 470.995 168.332C470.614 168.332 470.272 168.427 469.968 168.618C469.665 168.8 469.427 169.051 469.253 169.372C469.089 169.684 469.006 170.048 469.006 170.464C469.006 170.88 469.089 171.248 469.253 171.569C469.427 171.89 469.665 172.141 469.968 172.323C470.272 172.505 470.614 172.596 470.995 172.596ZM476.259 174V166.928H477.962V174H476.259ZM476.259 166.135V164.315H477.962V166.135H476.259ZM482.758 174.078C481.961 174.078 481.341 173.861 480.899 173.428C480.466 172.986 480.249 172.366 480.249 171.569V168.449H479.027V166.928H479.157C479.504 166.928 479.773 166.837 479.963 166.655C480.154 166.473 480.249 166.209 480.249 165.862V165.316H481.952V166.928H483.577V168.449H481.952V171.478C481.952 171.712 481.991 171.911 482.069 172.076C482.156 172.241 482.286 172.366 482.459 172.453C482.641 172.54 482.871 172.583 483.148 172.583C483.209 172.583 483.278 172.579 483.356 172.57C483.443 172.561 483.525 172.553 483.603 172.544V174C483.482 174.017 483.343 174.035 483.187 174.052C483.031 174.069 482.888 174.078 482.758 174.078Z" fill="white"/>
</g>
<path d="M496.752 191.309C496.752 191.042 496.827 190.78 496.967 190.553C497.107 190.326 497.308 190.142 497.547 190.023C497.786 189.903 498.053 189.853 498.319 189.877C498.585 189.901 498.839 189.998 499.052 190.159L510.55 198.786C511.654 199.614 511.067 201.374 509.687 201.374H504.013C503.793 201.374 503.576 201.424 503.378 201.522C503.18 201.619 503.008 201.76 502.873 201.935L499.328 206.556C498.493 207.646 496.751 207.055 496.751 205.681L496.752 191.309Z" fill="url(#paint7_linear_221_1654)"/>
</g>
<g filter="url(#filter5_dddd_221_1654)">
<g clip-path="url(#clip1_221_1654)">
<rect x="211" y="236" width="322" height="126" rx="18" fill="url(#paint8_linear_221_1654)"/>
<g filter="url(#filter6_dddd_221_1654)">
<g clip-path="url(#clip2_221_1654)">
<rect x="218" y="243" width="129" height="37" rx="18.5" fill="white"/>
<path d="M260.982 266V256.83H258.154V255.57H265.154V256.83H262.368V266H260.982ZM267.498 266L264.908 258.454H266.35L268.408 264.768L267.904 264.754L269.92 258.454H271.152L273.168 264.754L272.664 264.768L274.736 258.454H276.164L273.574 266H272.328L270.34 259.7H270.732L268.744 266H267.498ZM277.328 266V258.454H278.63V266H277.328ZM277.328 257.25V255.57H278.63V257.25H277.328ZM283.717 266.084C282.979 266.084 282.41 265.874 282.009 265.454C281.617 265.034 281.421 264.441 281.421 263.676V259.7H280.049V258.454H280.329C280.665 258.454 280.931 258.351 281.127 258.146C281.323 257.941 281.421 257.67 281.421 257.334V256.718H282.723V258.454H284.417V259.7H282.723V263.634C282.723 263.886 282.76 264.105 282.835 264.292C282.919 264.479 283.054 264.628 283.241 264.74C283.427 264.843 283.675 264.894 283.983 264.894C284.048 264.894 284.127 264.889 284.221 264.88C284.323 264.871 284.417 264.861 284.501 264.852V266C284.379 266.028 284.244 266.047 284.095 266.056C283.945 266.075 283.819 266.084 283.717 266.084ZM289.267 266.084C288.53 266.084 287.961 265.874 287.559 265.454C287.167 265.034 286.971 264.441 286.971 263.676V259.7H285.599V258.454H285.879C286.215 258.454 286.481 258.351 286.677 258.146C286.873 257.941 286.971 257.67 286.971 257.334V256.718H288.273V258.454H289.967V259.7H288.273V263.634C288.273 263.886 288.311 264.105 288.385 264.292C288.469 264.479 288.605 264.628 288.791 264.74C288.978 264.843 289.225 264.894 289.533 264.894C289.599 264.894 289.678 264.889 289.771 264.88C289.874 264.871 289.967 264.861 290.051 264.852V266C289.93 266.028 289.795 266.047 289.645 266.056C289.496 266.075 289.37 266.084 289.267 266.084ZM295.019 266.168C294.291 266.168 293.642 265.995 293.073 265.65C292.504 265.305 292.056 264.833 291.729 264.236C291.402 263.629 291.239 262.953 291.239 262.206C291.239 261.45 291.398 260.778 291.715 260.19C292.042 259.602 292.48 259.14 293.031 258.804C293.591 258.459 294.216 258.286 294.907 258.286C295.467 258.286 295.962 258.389 296.391 258.594C296.83 258.79 297.198 259.061 297.497 259.406C297.805 259.742 298.038 260.129 298.197 260.568C298.365 260.997 298.449 261.445 298.449 261.912C298.449 262.015 298.44 262.131 298.421 262.262C298.412 262.383 298.398 262.5 298.379 262.612H292.191V261.492H297.623L297.007 261.996C297.091 261.511 297.044 261.077 296.867 260.694C296.69 260.311 296.428 260.008 296.083 259.784C295.738 259.56 295.346 259.448 294.907 259.448C294.468 259.448 294.067 259.56 293.703 259.784C293.339 260.008 293.054 260.33 292.849 260.75C292.653 261.161 292.574 261.651 292.611 262.22C292.574 262.771 292.658 263.256 292.863 263.676C293.078 264.087 293.376 264.409 293.759 264.642C294.151 264.866 294.576 264.978 295.033 264.978C295.537 264.978 295.962 264.861 296.307 264.628C296.652 264.395 296.932 264.096 297.147 263.732L298.239 264.292C298.09 264.637 297.856 264.955 297.539 265.244C297.231 265.524 296.862 265.748 296.433 265.916C296.013 266.084 295.542 266.168 295.019 266.168ZM300.147 266V258.454H301.421V259.84L301.281 259.644C301.458 259.215 301.729 258.897 302.093 258.692C302.457 258.477 302.9 258.37 303.423 258.37H303.885V259.602H303.227C302.695 259.602 302.265 259.77 301.939 260.106C301.612 260.433 301.449 260.899 301.449 261.506V266H300.147ZM306.551 267.68L311.255 256.144H312.725L308.021 267.68H306.551ZM315.398 266L318.8 260.708L315.482 255.57H317.05L319.864 259.952H319.276L322.09 255.57H323.658L320.34 260.708L323.742 266H322.174L319.276 261.464H319.864L316.952 266H315.398Z" fill="#918F8F"/>
<g filter="url(#filter7_ddddd_221_1654)">
<circle cx="238" cy="261" r="13" fill="white"/>
</g>
<g clip-path="url(#clip3_221_1654)">
<path fill-rule="evenodd" clip-rule="evenodd" d="M233.125 253.625C232.462 253.625 231.826 253.888 231.357 254.357C230.888 254.826 230.625 255.462 230.625 256.125V264.875C230.625 265.538 230.888 266.174 231.357 266.643C231.826 267.112 232.462 267.375 233.125 267.375H241.875C242.538 267.375 243.174 267.112 243.643 266.643C244.112 266.174 244.375 265.538 244.375 264.875V256.125C244.375 255.462 244.112 254.826 243.643 254.357C243.174 253.888 242.538 253.625 241.875 253.625H233.125ZM232.916 255.812C232.848 255.838 232.786 255.879 232.737 255.932C232.687 255.986 232.65 256.05 232.63 256.12C232.609 256.19 232.605 256.264 232.618 256.336C232.631 256.408 232.661 256.475 232.705 256.534L236.214 261.19L232.517 265.156L232.489 265.188H233.769L236.787 261.951L239.107 265.031C239.161 265.102 239.234 265.156 239.318 265.188H242.082C242.15 265.162 242.212 265.121 242.261 265.067C242.311 265.014 242.347 264.95 242.368 264.88C242.388 264.809 242.392 264.736 242.379 264.664C242.366 264.592 242.336 264.524 242.292 264.466L238.783 259.81L242.511 255.812H241.229L238.211 259.05L235.889 255.97C235.836 255.898 235.763 255.844 235.679 255.812H232.916ZM239.716 264.28L234.019 256.72H235.281L240.977 264.279L239.716 264.28Z" fill="#4A5160"/>
</g>
</g>
<rect x="218.5" y="243.5" width="128" height="36" rx="18" stroke="#CCF8DC"/>
</g>
<g filter="url(#filter8_dddd_221_1654)">
<g clip-path="url(#clip4_221_1654)">
<rect x="359" y="243" width="129" height="37" rx="18.5" fill="white"/>
<path d="M401.982 266V256.83H399.154V255.57H406.154V256.83H403.368V266H401.982ZM407.322 266V258.454H408.624V266H407.322ZM407.322 257.25V255.57H408.624V257.25H407.322ZM410.645 266V255.402H411.947V262.668L411.415 262.542L415.419 258.454H417.085L414.187 261.492L417.281 266H415.741L412.913 261.912L413.725 261.87L411.527 264.166L411.947 263.214V266H410.645ZM420.425 266V256.83H417.597V255.57H424.597V256.83H421.811V266H420.425ZM428.365 266.168C427.637 266.168 426.979 266 426.391 265.664C425.803 265.319 425.337 264.847 424.991 264.25C424.646 263.653 424.473 262.976 424.473 262.22C424.473 261.464 424.641 260.792 424.977 260.204C425.323 259.616 425.789 259.149 426.377 258.804C426.965 258.459 427.628 258.286 428.365 258.286C429.093 258.286 429.751 258.459 430.339 258.804C430.927 259.14 431.389 259.602 431.725 260.19C432.071 260.778 432.243 261.455 432.243 262.22C432.243 262.985 432.066 263.667 431.711 264.264C431.357 264.852 430.885 265.319 430.297 265.664C429.719 266 429.075 266.168 428.365 266.168ZM428.365 264.908C428.832 264.908 429.252 264.791 429.625 264.558C430.008 264.325 430.307 264.003 430.521 263.592C430.745 263.181 430.857 262.724 430.857 262.22C430.857 261.707 430.745 261.254 430.521 260.862C430.307 260.461 430.008 260.143 429.625 259.91C429.252 259.667 428.832 259.546 428.365 259.546C427.889 259.546 427.46 259.667 427.077 259.91C426.704 260.143 426.405 260.461 426.181 260.862C425.957 261.254 425.845 261.707 425.845 262.22C425.845 262.724 425.957 263.181 426.181 263.592C426.405 264.003 426.704 264.325 427.077 264.558C427.46 264.791 427.889 264.908 428.365 264.908ZM433.942 266V255.402H435.244V262.668L434.712 262.542L438.716 258.454H440.382L437.484 261.492L440.578 266H439.038L436.21 261.912L437.022 261.87L434.824 264.166L435.244 263.214V266H433.942Z" fill="#918F8F"/>
<g filter="url(#filter9_ddddd_221_1654)">
<circle cx="379" cy="261" r="13" fill="white"/>
</g>
<path d="M381.375 256.638C380.947 256.15 380.712 255.523 380.712 254.875H378.781V262.625C378.766 263.044 378.589 263.442 378.287 263.733C377.985 264.025 377.582 264.188 377.162 264.187C376.275 264.187 375.537 263.463 375.537 262.563C375.537 261.488 376.575 260.681 377.643 261.012V259.037C375.487 258.75 373.6 260.425 373.6 262.563C373.6 264.644 375.325 266.125 377.156 266.125C379.118 266.125 380.712 264.531 380.712 262.563V258.631C381.495 259.194 382.435 259.495 383.4 259.494V257.563C383.4 257.563 382.225 257.619 381.375 256.638Z" fill="black"/>
</g>
<rect x="359.5" y="243.5" width="128" height="36" rx="18" stroke="#CCF8DC"/>
</g>
<g filter="url(#filter10_dddd_221_1654)">
<g clip-path="url(#clip5_221_1654)">
<rect x="500" y="243" width="129" height="37" rx="18.5" fill="white"/>
<g filter="url(#filter11_ddddd_221_1654)">
<circle cx="520" cy="261" r="13" fill="white"/>
</g>
<g clip-path="url(#clip6_221_1654)">
<path d="M523.484 253H515.516C513.574 253 512 254.574 512 256.516V264.484C512 266.426 513.574 268 515.516 268H523.484C525.426 268 527 266.426 527 264.484V256.516C527 254.574 525.426 253 523.484 253Z" fill="url(#paint9_radial_221_1654)"/>
<path d="M523.484 253H515.516C513.574 253 512 254.574 512 256.516V264.484C512 266.426 513.574 268 515.516 268H523.484C525.426 268 527 266.426 527 264.484V256.516C527 254.574 525.426 253 523.484 253Z" fill="url(#paint10_radial_221_1654)"/>
<path d="M519.501 254.641C517.909 254.641 517.709 254.648 517.085 254.676C516.461 254.705 516.035 254.803 515.662 254.948C515.277 255.098 514.95 255.298 514.624 255.624C514.298 255.95 514.098 256.277 513.948 256.662C513.803 257.034 513.704 257.46 513.676 258.084C513.648 258.709 513.641 258.909 513.641 260.5C513.641 262.091 513.648 262.291 513.676 262.915C513.705 263.539 513.803 263.965 513.948 264.338C514.098 264.723 514.298 265.05 514.624 265.376C514.95 265.702 515.277 265.902 515.662 266.052C516.034 266.197 516.46 266.296 517.084 266.324C517.709 266.353 517.909 266.359 519.5 266.359C521.091 266.359 521.29 266.353 521.915 266.324C522.539 266.296 522.965 266.197 523.338 266.052C523.723 265.902 524.05 265.702 524.375 265.376C524.701 265.05 524.902 264.723 525.052 264.338C525.196 263.965 525.295 263.539 525.324 262.916C525.352 262.291 525.359 262.091 525.359 260.5C525.359 258.909 525.352 258.709 525.324 258.084C525.295 257.46 525.196 257.034 525.052 256.662C524.902 256.277 524.701 255.95 524.375 255.624C524.05 255.298 523.724 255.098 523.338 254.948C522.964 254.803 522.538 254.705 521.915 254.676C521.29 254.648 521.091 254.641 519.499 254.641H519.501ZM518.975 255.697C519.131 255.696 519.305 255.697 519.501 255.697C521.065 255.697 521.25 255.702 521.868 255.73C522.44 255.756 522.75 255.852 522.956 255.932C523.23 256.038 523.425 256.165 523.63 256.37C523.835 256.575 523.962 256.771 524.068 257.044C524.148 257.25 524.244 257.56 524.27 258.132C524.298 258.749 524.304 258.935 524.304 260.499C524.304 262.062 524.298 262.248 524.27 262.866C524.244 263.437 524.148 263.747 524.068 263.953C523.962 264.227 523.835 264.422 523.63 264.626C523.424 264.832 523.23 264.958 522.956 265.065C522.75 265.145 522.44 265.24 521.868 265.267C521.251 265.295 521.065 265.301 519.501 265.301C517.936 265.301 517.751 265.295 517.133 265.267C516.562 265.24 516.252 265.145 516.045 265.065C515.771 264.958 515.576 264.831 515.371 264.626C515.166 264.421 515.039 264.226 514.933 263.953C514.852 263.747 514.757 263.436 514.731 262.865C514.703 262.247 514.697 262.062 514.697 260.497C514.697 258.933 514.703 258.748 514.731 258.13C514.757 257.559 514.852 257.249 514.933 257.042C515.039 256.769 515.166 256.574 515.371 256.369C515.576 256.163 515.771 256.037 516.045 255.93C516.251 255.85 516.562 255.754 517.133 255.728C517.673 255.704 517.883 255.696 518.975 255.695V255.697ZM522.628 256.669C522.24 256.669 521.925 256.984 521.925 257.372C521.925 257.761 522.24 258.075 522.628 258.075C523.016 258.075 523.331 257.761 523.331 257.372C523.331 256.984 523.016 256.669 522.628 256.669V256.669ZM519.501 257.491C517.839 257.491 516.492 258.838 516.492 260.5C516.492 262.162 517.839 263.508 519.501 263.508C521.162 263.508 522.509 262.162 522.509 260.5C522.509 258.838 521.162 257.491 519.5 257.491H519.501ZM519.501 258.547C520.579 258.547 521.454 259.421 521.454 260.5C521.454 261.579 520.579 262.453 519.501 262.453C518.422 262.453 517.547 261.579 517.547 260.5C517.547 259.421 518.422 258.547 519.501 258.547Z" fill="white"/>
</g>
</g>
<rect x="500.5" y="243.5" width="128" height="36" rx="18" stroke="#CCF8DC"/>
</g>
<rect x="310" y="237" width="365" height="47" fill="url(#paint11_linear_221_1654)"/>
<rect x="223" y="293" width="136" height="11" rx="5.5" fill="#CDF8DC"/>
<rect x="225" y="313" width="136" height="11" rx="5.5" fill="#CDF8DC"/>
</g>
<rect x="211.5" y="236.5" width="321" height="125" rx="17.5" stroke="url(#paint12_linear_221_1654)" stroke-opacity="0.47"/>
</g>
<g filter="url(#filter12_ii_221_1654)">
<rect x="399" y="319" width="126" height="32" rx="16" fill="#4FC97A"/>
<path d="M421.394 338.156C420.779 338.156 420.207 338.043 419.678 337.818C419.158 337.593 418.707 337.281 418.326 336.882C417.953 336.475 417.68 336.002 417.507 335.465L418.976 334.828C419.21 335.383 419.548 335.82 419.99 336.141C420.432 336.453 420.93 336.609 421.485 336.609C421.797 336.609 422.066 336.561 422.291 336.466C422.525 336.362 422.703 336.223 422.824 336.05C422.954 335.877 423.019 335.669 423.019 335.426C423.019 335.14 422.932 334.906 422.759 334.724C422.594 334.533 422.343 334.386 422.005 334.282L420.146 333.684C419.392 333.45 418.824 333.099 418.443 332.631C418.062 332.163 417.871 331.613 417.871 330.98C417.871 330.425 418.005 329.936 418.274 329.511C418.551 329.086 418.933 328.757 419.418 328.523C419.912 328.28 420.475 328.159 421.108 328.159C421.689 328.159 422.222 328.263 422.707 328.471C423.192 328.67 423.608 328.952 423.955 329.316C424.31 329.671 424.575 330.092 424.748 330.577L423.292 331.227C423.101 330.742 422.815 330.369 422.434 330.109C422.053 329.84 421.611 329.706 421.108 329.706C420.813 329.706 420.553 329.758 420.328 329.862C420.103 329.957 419.925 330.096 419.795 330.278C419.674 330.451 419.613 330.659 419.613 330.902C419.613 331.171 419.7 331.409 419.873 331.617C420.046 331.816 420.311 331.972 420.666 332.085L422.447 332.644C423.218 332.895 423.795 333.242 424.176 333.684C424.566 334.126 424.761 334.672 424.761 335.322C424.761 335.877 424.618 336.366 424.332 336.791C424.046 337.216 423.652 337.549 423.149 337.792C422.646 338.035 422.061 338.156 421.394 338.156ZM428.292 338.156C427.798 338.156 427.369 338.074 427.005 337.909C426.641 337.744 426.359 337.51 426.16 337.207C425.96 336.895 425.861 336.535 425.861 336.128C425.861 335.738 425.947 335.391 426.121 335.088C426.294 334.776 426.563 334.516 426.927 334.308C427.291 334.1 427.75 333.953 428.305 333.866L430.619 333.489V334.789L428.63 335.127C428.292 335.188 428.04 335.296 427.876 335.452C427.711 335.608 427.629 335.812 427.629 336.063C427.629 336.306 427.72 336.501 427.902 336.648C428.092 336.787 428.326 336.856 428.604 336.856C428.959 336.856 429.271 336.782 429.54 336.635C429.817 336.479 430.029 336.267 430.177 335.998C430.333 335.729 430.411 335.435 430.411 335.114V333.294C430.411 332.991 430.289 332.739 430.047 332.54C429.813 332.332 429.501 332.228 429.111 332.228C428.747 332.228 428.422 332.328 428.136 332.527C427.858 332.718 427.655 332.973 427.525 333.294L426.134 332.618C426.272 332.245 426.489 331.925 426.784 331.656C427.087 331.379 427.442 331.162 427.85 331.006C428.257 330.85 428.699 330.772 429.176 330.772C429.756 330.772 430.268 330.88 430.71 331.097C431.152 331.305 431.494 331.6 431.737 331.981C431.988 332.354 432.114 332.791 432.114 333.294V338H430.502V336.791L430.866 336.765C430.684 337.068 430.467 337.324 430.216 337.532C429.964 337.731 429.678 337.887 429.358 338C429.037 338.104 428.682 338.156 428.292 338.156ZM435.693 338L432.911 330.928H434.77L436.785 336.492H436.096L438.124 330.928H439.983L437.201 338H435.693ZM444.151 338.156C443.423 338.156 442.786 337.991 442.24 337.662C441.694 337.333 441.269 336.886 440.966 336.323C440.663 335.76 440.511 335.136 440.511 334.451C440.511 333.74 440.663 333.112 440.966 332.566C441.278 332.011 441.698 331.574 442.227 331.253C442.764 330.932 443.362 330.772 444.021 330.772C444.576 330.772 445.061 330.863 445.477 331.045C445.902 331.227 446.261 331.478 446.556 331.799C446.851 332.12 447.076 332.488 447.232 332.904C447.388 333.311 447.466 333.753 447.466 334.23C447.466 334.351 447.457 334.477 447.44 334.607C447.431 334.737 447.41 334.85 447.375 334.945H441.915V333.645H446.413L445.607 334.256C445.685 333.857 445.663 333.502 445.542 333.19C445.429 332.878 445.239 332.631 444.97 332.449C444.71 332.267 444.394 332.176 444.021 332.176C443.666 332.176 443.349 332.267 443.072 332.449C442.795 332.622 442.582 332.882 442.435 333.229C442.296 333.567 442.244 333.979 442.279 334.464C442.244 334.897 442.301 335.283 442.448 335.621C442.604 335.95 442.829 336.206 443.124 336.388C443.427 336.57 443.774 336.661 444.164 336.661C444.554 336.661 444.883 336.579 445.152 336.414C445.429 336.249 445.646 336.028 445.802 335.751L447.18 336.427C447.041 336.765 446.825 337.064 446.53 337.324C446.235 337.584 445.884 337.788 445.477 337.935C445.078 338.082 444.636 338.156 444.151 338.156ZM455.76 338.156C455.067 338.156 454.426 338.03 453.836 337.779C453.256 337.528 452.744 337.177 452.302 336.726C451.869 336.275 451.531 335.747 451.288 335.14C451.046 334.533 450.924 333.87 450.924 333.151C450.924 332.432 451.041 331.769 451.275 331.162C451.518 330.547 451.856 330.018 452.289 329.576C452.731 329.125 453.247 328.779 453.836 328.536C454.426 328.285 455.067 328.159 455.76 328.159C456.454 328.159 457.073 328.276 457.619 328.51C458.174 328.744 458.642 329.056 459.023 329.446C459.405 329.827 459.678 330.248 459.842 330.707L458.256 331.448C458.074 330.963 457.767 330.564 457.333 330.252C456.9 329.931 456.376 329.771 455.76 329.771C455.154 329.771 454.616 329.914 454.148 330.2C453.689 330.486 453.329 330.88 453.069 331.383C452.818 331.886 452.692 332.475 452.692 333.151C452.692 333.827 452.818 334.421 453.069 334.932C453.329 335.435 453.689 335.829 454.148 336.115C454.616 336.401 455.154 336.544 455.76 336.544C456.376 336.544 456.9 336.388 457.333 336.076C457.767 335.755 458.074 335.352 458.256 334.867L459.842 335.608C459.678 336.067 459.405 336.492 459.023 336.882C458.642 337.263 458.174 337.571 457.619 337.805C457.073 338.039 456.454 338.156 455.76 338.156ZM461.135 338V328.159H462.838V332.319L462.604 332.072C462.768 331.647 463.037 331.327 463.41 331.11C463.791 330.885 464.233 330.772 464.736 330.772C465.256 330.772 465.715 330.885 466.114 331.11C466.521 331.335 466.837 331.652 467.063 332.059C467.288 332.458 467.401 332.921 467.401 333.45V338H465.698V333.853C465.698 333.541 465.637 333.272 465.516 333.047C465.394 332.822 465.225 332.648 465.009 332.527C464.801 332.397 464.554 332.332 464.268 332.332C463.99 332.332 463.743 332.397 463.527 332.527C463.31 332.648 463.141 332.822 463.02 333.047C462.898 333.272 462.838 333.541 462.838 333.853V338H461.135ZM470.986 338.156C470.492 338.156 470.063 338.074 469.699 337.909C469.335 337.744 469.053 337.51 468.854 337.207C468.655 336.895 468.555 336.535 468.555 336.128C468.555 335.738 468.642 335.391 468.815 335.088C468.988 334.776 469.257 334.516 469.621 334.308C469.985 334.1 470.444 333.953 470.999 333.866L473.313 333.489V334.789L471.324 335.127C470.986 335.188 470.735 335.296 470.57 335.452C470.405 335.608 470.323 335.812 470.323 336.063C470.323 336.306 470.414 336.501 470.596 336.648C470.787 336.787 471.021 336.856 471.298 336.856C471.653 336.856 471.965 336.782 472.234 336.635C472.511 336.479 472.724 336.267 472.871 335.998C473.027 335.729 473.105 335.435 473.105 335.114V333.294C473.105 332.991 472.984 332.739 472.741 332.54C472.507 332.332 472.195 332.228 471.805 332.228C471.441 332.228 471.116 332.328 470.83 332.527C470.553 332.718 470.349 332.973 470.219 333.294L468.828 332.618C468.967 332.245 469.183 331.925 469.478 331.656C469.781 331.379 470.137 331.162 470.544 331.006C470.951 330.85 471.393 330.772 471.87 330.772C472.451 330.772 472.962 330.88 473.404 331.097C473.846 331.305 474.188 331.6 474.431 331.981C474.682 332.354 474.808 332.791 474.808 333.294V338H473.196V336.791L473.56 336.765C473.378 337.068 473.161 337.324 472.91 337.532C472.659 337.731 472.373 337.887 472.052 338C471.731 338.104 471.376 338.156 470.986 338.156ZM476.382 338V330.928H477.981V332.319L477.851 332.072C478.016 331.647 478.284 331.327 478.657 331.11C479.038 330.885 479.48 330.772 479.983 330.772C480.503 330.772 480.962 330.885 481.361 331.11C481.768 331.335 482.085 331.652 482.31 332.059C482.535 332.458 482.648 332.921 482.648 333.45V338H480.945V333.853C480.945 333.541 480.884 333.272 480.763 333.047C480.642 332.822 480.473 332.648 480.256 332.527C480.048 332.397 479.801 332.332 479.515 332.332C479.238 332.332 478.991 332.397 478.774 332.527C478.557 332.648 478.388 332.822 478.267 333.047C478.146 333.272 478.085 333.541 478.085 333.853V338H476.382ZM487.52 340.86C486.991 340.86 486.502 340.773 486.051 340.6C485.6 340.427 485.21 340.184 484.881 339.872C484.56 339.569 484.326 339.209 484.179 338.793L485.765 338.195C485.869 338.524 486.073 338.789 486.376 338.988C486.688 339.196 487.069 339.3 487.52 339.3C487.867 339.3 488.17 339.235 488.43 339.105C488.699 338.975 488.907 338.784 489.054 338.533C489.201 338.29 489.275 337.996 489.275 337.649V336.037L489.6 336.427C489.357 336.852 489.032 337.172 488.625 337.389C488.218 337.606 487.754 337.714 487.234 337.714C486.575 337.714 485.986 337.562 485.466 337.259C484.946 336.956 484.539 336.54 484.244 336.011C483.949 335.482 483.802 334.889 483.802 334.23C483.802 333.563 483.949 332.969 484.244 332.449C484.539 331.929 484.942 331.522 485.453 331.227C485.964 330.924 486.545 330.772 487.195 330.772C487.724 330.772 488.187 330.885 488.586 331.11C488.993 331.327 489.331 331.643 489.6 332.059L489.366 332.488V330.928H490.978V337.649C490.978 338.264 490.826 338.815 490.523 339.3C490.228 339.785 489.821 340.167 489.301 340.444C488.79 340.721 488.196 340.86 487.52 340.86ZM487.442 336.141C487.806 336.141 488.122 336.063 488.391 335.907C488.668 335.742 488.885 335.517 489.041 335.231C489.197 334.945 489.275 334.616 489.275 334.243C489.275 333.879 489.193 333.554 489.028 333.268C488.872 332.973 488.655 332.744 488.378 332.579C488.109 332.414 487.797 332.332 487.442 332.332C487.087 332.332 486.766 332.414 486.48 332.579C486.194 332.744 485.969 332.973 485.804 333.268C485.648 333.554 485.57 333.879 485.57 334.243C485.57 334.607 485.648 334.932 485.804 335.218C485.969 335.504 486.19 335.729 486.467 335.894C486.753 336.059 487.078 336.141 487.442 336.141ZM495.922 338.156C495.194 338.156 494.557 337.991 494.011 337.662C493.465 337.333 493.041 336.886 492.737 336.323C492.434 335.76 492.282 335.136 492.282 334.451C492.282 333.74 492.434 333.112 492.737 332.566C493.049 332.011 493.47 331.574 493.998 331.253C494.536 330.932 495.134 330.772 495.792 330.772C496.347 330.772 496.832 330.863 497.248 331.045C497.673 331.227 498.033 331.478 498.327 331.799C498.622 332.12 498.847 332.488 499.003 332.904C499.159 333.311 499.237 333.753 499.237 334.23C499.237 334.351 499.229 334.477 499.211 334.607C499.203 334.737 499.181 334.85 499.146 334.945H493.686V333.645H498.184L497.378 334.256C497.456 333.857 497.435 333.502 497.313 333.19C497.201 332.878 497.01 332.631 496.741 332.449C496.481 332.267 496.165 332.176 495.792 332.176C495.437 332.176 495.121 332.267 494.843 332.449C494.566 332.622 494.354 332.882 494.206 333.229C494.068 333.567 494.016 333.979 494.05 334.464C494.016 334.897 494.072 335.283 494.219 335.621C494.375 335.95 494.601 336.206 494.895 336.388C495.199 336.57 495.545 336.661 495.935 336.661C496.325 336.661 496.655 336.579 496.923 336.414C497.201 336.249 497.417 336.028 497.573 335.751L498.951 336.427C498.813 336.765 498.596 337.064 498.301 337.324C498.007 337.584 497.656 337.788 497.248 337.935C496.85 338.082 496.408 338.156 495.922 338.156ZM503.219 338.156C502.465 338.156 501.807 337.978 501.243 337.623C500.689 337.259 500.307 336.769 500.099 336.154L501.373 335.543C501.555 335.942 501.807 336.254 502.127 336.479C502.457 336.704 502.821 336.817 503.219 336.817C503.531 336.817 503.778 336.748 503.96 336.609C504.142 336.47 504.233 336.288 504.233 336.063C504.233 335.924 504.194 335.812 504.116 335.725C504.047 335.63 503.947 335.552 503.817 335.491C503.696 335.422 503.562 335.365 503.414 335.322L502.257 334.997C501.659 334.824 501.204 334.559 500.892 334.204C500.589 333.849 500.437 333.428 500.437 332.943C500.437 332.51 500.546 332.133 500.762 331.812C500.988 331.483 501.295 331.227 501.685 331.045C502.084 330.863 502.539 330.772 503.05 330.772C503.718 330.772 504.307 330.932 504.818 331.253C505.33 331.574 505.694 332.024 505.91 332.605L504.61 333.216C504.489 332.895 504.285 332.64 503.999 332.449C503.713 332.258 503.393 332.163 503.037 332.163C502.751 332.163 502.526 332.228 502.361 332.358C502.197 332.488 502.114 332.657 502.114 332.865C502.114 332.995 502.149 333.108 502.218 333.203C502.288 333.298 502.383 333.376 502.504 333.437C502.634 333.498 502.782 333.554 502.946 333.606L504.077 333.944C504.658 334.117 505.104 334.377 505.416 334.724C505.737 335.071 505.897 335.495 505.897 335.998C505.897 336.423 505.785 336.8 505.559 337.129C505.334 337.45 505.022 337.701 504.623 337.883C504.225 338.065 503.757 338.156 503.219 338.156Z" fill="white"/>
</g>
<path d="M502.752 355.309C502.752 355.042 502.827 354.78 502.967 354.553C503.107 354.326 503.308 354.142 503.547 354.023C503.786 353.903 504.053 353.853 504.319 353.877C504.585 353.901 504.839 353.998 505.052 354.159L516.55 362.786C517.654 363.614 517.067 365.374 515.687 365.374H510.013C509.793 365.374 509.576 365.424 509.378 365.522C509.18 365.619 509.008 365.76 508.873 365.935L505.328 370.556C504.493 371.646 502.751 371.055 502.751 369.681L502.752 355.309Z" fill="url(#paint13_linear_221_1654)"/>
</g>
<defs>
<filter id="filter0_dddd_221_1654" x="2" y="25" width="208" height="422" filterUnits="userSpaceOnUse" color-interpolation-filters="sRGB">
<feFlood flood-opacity="0" result="BackgroundImageFix"/>
<feColorMatrix in="SourceAlpha" type="matrix" values="0 0 0 0 0 0 0 0 0 0 0 0 0 0 0 0 0 0 127 0" result="hardAlpha"/>
<feOffset dy="4"/>
<feGaussianBlur stdDeviation="4"/>
<feColorMatrix type="matrix" values="0 0 0 0 0.380392 0 0 0 0 0.709804 0 0 0 0 0.431373 0 0 0 0.15 0"/>
<feBlend mode="normal" in2="BackgroundImageFix" result="effect1_dropShadow_221_1654"/>
<feColorMatrix in="SourceAlpha" type="matrix" values="0 0 0 0 0 0 0 0 0 0 0 0 0 0 0 0 0 0 127 0" result="hardAlpha"/>
<feOffset dy="15"/>
<feGaussianBlur stdDeviation="7.5"/>
<feColorMatrix type="matrix" values="0 0 0 0 0.380392 0 0 0 0 0.709804 0 0 0 0 0.431373 0 0 0 0.13 0"/>
<feBlend mode="normal" in2="effect1_dropShadow_221_1654" result="effect2_dropShadow_221_1654"/>
<feColorMatrix in="SourceAlpha" type="matrix" values="0 0 0 0 0 0 0 0 0 0 0 0 0 0 0 0 0 0 127 0" result="hardAlpha"/>
<feOffset dy="34"/>
<feGaussianBlur stdDeviation="10.5"/>
<feColorMatrix type="matrix" values="0 0 0 0 0.380392 0 0 0 0 0.709804 0 0 0 0 0.431373 0 0 0 0.08 0"/>
<feBlend mode="normal" in2="effect2_dropShadow_221_1654" result="effect3_dropShadow_221_1654"/>
<feColorMatrix in="SourceAlpha" type="matrix" values="0 0 0 0 0 0 0 0 0 0 0 0 0 0 0 0 0 0 127 0" result="hardAlpha"/>
<feOffset dy="61"/>
<feGaussianBlur stdDeviation="12"/>
<feColorMatrix type="matrix" values="0 0 0 0 0.380392 0 0 0 0 0.709804 0 0 0 0 0.431373 0 0 0 0.02 0"/>
<feBlend mode="normal" in2="effect3_dropShadow_221_1654" result="effect4_dropShadow_221_1654"/>
<feBlend mode="normal" in="SourceGraphic" in2="effect4_dropShadow_221_1654" result="shape"/>
</filter>
<filter id="filter1_dddd_221_1654" x="42" y="166" width="138" height="88" filterUnits="userSpaceOnUse" color-interpolation-filters="sRGB">
<feFlood flood-opacity="0" result="BackgroundImageFix"/>
<feColorMatrix in="SourceAlpha" type="matrix" values="0 0 0 0 0 0 0 0 0 0 0 0 0 0 0 0 0 0 127 0" result="hardAlpha"/>
<feOffset dy="2"/>
<feGaussianBlur stdDeviation="2.5"/>
<feColorMatrix type="matrix" values="0 0 0 0 0.380392 0 0 0 0 0.709804 0 0 0 0 0.431373 0 0 0 0.15 0"/>
<feBlend mode="normal" in2="BackgroundImageFix" result="effect1_dropShadow_221_1654"/>
<feColorMatrix in="SourceAlpha" type="matrix" values="0 0 0 0 0 0 0 0 0 0 0 0 0 0 0 0 0 0 127 0" result="hardAlpha"/>
<feOffset dy="10"/>
<feGaussianBlur stdDeviation="5"/>
<feColorMatrix type="matrix" values="0 0 0 0 0.380392 0 0 0 0 0.709804 0 0 0 0 0.431373 0 0 0 0.13 0"/>
<feBlend mode="normal" in2="effect1_dropShadow_221_1654" result="effect2_dropShadow_221_1654"/>
<feColorMatrix in="SourceAlpha" type="matrix" values="0 0 0 0 0 0 0 0 0 0 0 0 0 0 0 0 0 0 127 0" result="hardAlpha"/>
<feOffset dy="21"/>
<feGaussianBlur stdDeviation="6.5"/>
<feColorMatrix type="matrix" values="0 0 0 0 0.380392 0 0 0 0 0.709804 0 0 0 0 0.431373 0 0 0 0.08 0"/>
<feBlend mode="normal" in2="effect2_dropShadow_221_1654" result="effect3_dropShadow_221_1654"/>
<feColorMatrix in="SourceAlpha" type="matrix" values="0 0 0 0 0 0 0 0 0 0 0 0 0 0 0 0 0 0 127 0" result="hardAlpha"/>
<feOffset dy="38"/>
<feGaussianBlur stdDeviation="7.5"/>
<feColorMatrix type="matrix" values="0 0 0 0 0.380392 0 0 0 0 0.709804 0 0 0 0 0.431373 0 0 0 0.02 0"/>
<feBlend mode="normal" in2="effect3_dropShadow_221_1654" result="effect4_dropShadow_221_1654"/>
<feBlend mode="normal" in="SourceGraphic" in2="effect4_dropShadow_221_1654" result="shape"/>
</filter>
<filter id="filter2_dddd_221_1654" x="187" y="25" width="370" height="270" filterUnits="userSpaceOnUse" color-interpolation-filters="sRGB">
<feFlood flood-opacity="0" result="BackgroundImageFix"/>
<feColorMatrix in="SourceAlpha" type="matrix" values="0 0 0 0 0 0 0 0 0 0 0 0 0 0 0 0 0 0 127 0" result="hardAlpha"/>
<feOffset dy="4"/>
<feGaussianBlur stdDeviation="4"/>
<feColorMatrix type="matrix" values="0 0 0 0 0.380392 0 0 0 0 0.709804 0 0 0 0 0.431373 0 0 0 0.15 0"/>
<feBlend mode="normal" in2="BackgroundImageFix" result="effect1_dropShadow_221_1654"/>
<feColorMatrix in="SourceAlpha" type="matrix" values="0 0 0 0 0 0 0 0 0 0 0 0 0 0 0 0 0 0 127 0" result="hardAlpha"/>
<feOffset dy="15"/>
<feGaussianBlur stdDeviation="7.5"/>
<feColorMatrix type="matrix" values="0 0 0 0 0.380392 0 0 0 0 0.709804 0 0 0 0 0.431373 0 0 0 0.13 0"/>
<feBlend mode="normal" in2="effect1_dropShadow_221_1654" result="effect2_dropShadow_221_1654"/>
<feColorMatrix in="SourceAlpha" type="matrix" values="0 0 0 0 0 0 0 0 0 0 0 0 0 0 0 0 0 0 127 0" result="hardAlpha"/>
<feOffset dy="34"/>
<feGaussianBlur stdDeviation="10.5"/>
<feColorMatrix type="matrix" values="0 0 0 0 0.380392 0 0 0 0 0.709804 0 0 0 0 0.431373 0 0 0 0.08 0"/>
<feBlend mode="normal" in2="effect2_dropShadow_221_1654" result="effect3_dropShadow_221_1654"/>
<feColorMatrix in="SourceAlpha" type="matrix" values="0 0 0 0 0 0 0 0 0 0 0 0 0 0 0 0 0 0 127 0" result="hardAlpha"/>
<feOffset dy="61"/>
<feGaussianBlur stdDeviation="12"/>
<feColorMatrix type="matrix" values="0 0 0 0 0.380392 0 0 0 0 0.709804 0 0 0 0 0.431373 0 0 0 0.02 0"/>
<feBlend mode="normal" in2="effect3_dropShadow_221_1654" result="effect4_dropShadow_221_1654"/>
<feBlend mode="normal" in="SourceGraphic" in2="effect4_dropShadow_221_1654" result="shape"/>
</filter>
<filter id="filter3_ddddd_221_1654" x="223" y="38" width="297" height="83" filterUnits="userSpaceOnUse" color-interpolation-filters="sRGB">
<feFlood flood-opacity="0" result="BackgroundImageFix"/>
<feColorMatrix in="SourceAlpha" type="matrix" values="0 0 0 0 0 0 0 0 0 0 0 0 0 0 0 0 0 0 127 0" result="hardAlpha"/>
<feOffset/>
<feGaussianBlur stdDeviation="0.5"/>
<feColorMatrix type="matrix" values="0 0 0 0 0.713726 0 0 0 0 0.827451 0 0 0 0 0.729412 0 0 0 0.98 0"/>
<feBlend mode="normal" in2="BackgroundImageFix" result="effect1_dropShadow_221_1654"/>
<feColorMatrix in="SourceAlpha" type="matrix" values="0 0 0 0 0 0 0 0 0 0 0 0 0 0 0 0 0 0 127 0" result="hardAlpha"/>
<feOffset dy="1"/>
<feGaussianBlur stdDeviation="0.5"/>
<feColorMatrix type="matrix" values="0 0 0 0 0.713726 0 0 0 0 0.827451 0 0 0 0 0.729412 0 0 0 0.85 0"/>
<feBlend mode="normal" in2="effect1_dropShadow_221_1654" result="effect2_dropShadow_221_1654"/>
<feColorMatrix in="SourceAlpha" type="matrix" values="0 0 0 0 0 0 0 0 0 0 0 0 0 0 0 0 0 0 127 0" result="hardAlpha"/>
<feOffset dy="3"/>
<feGaussianBlur stdDeviation="1"/>
<feColorMatrix type="matrix" values="0 0 0 0 0.713726 0 0 0 0 0.827451 0 0 0 0 0.729412 0 0 0 0.5 0"/>
<feBlend mode="normal" in2="effect2_dropShadow_221_1654" result="effect3_dropShadow_221_1654"/>
<feColorMatrix in="SourceAlpha" type="matrix" values="0 0 0 0 0 0 0 0 0 0 0 0 0 0 0 0 0 0 127 0" result="hardAlpha"/>
<feOffset dy="6"/>
<feGaussianBlur stdDeviation="1"/>
<feColorMatrix type="matrix" values="0 0 0 0 0.713726 0 0 0 0 0.827451 0 0 0 0 0.729412 0 0 0 0.15 0"/>
<feBlend mode="normal" in2="effect3_dropShadow_221_1654" result="effect4_dropShadow_221_1654"/>
<feColorMatrix in="SourceAlpha" type="matrix" values="0 0 0 0 0 0 0 0 0 0 0 0 0 0 0 0 0 0 127 0" result="hardAlpha"/>
<feOffset dy="9"/>
<feGaussianBlur stdDeviation="1.5"/>
<feColorMatrix type="matrix" values="0 0 0 0 0.713726 0 0 0 0 0.827451 0 0 0 0 0.729412 0 0 0 0.02 0"/>
<feBlend mode="normal" in2="effect4_dropShadow_221_1654" result="effect5_dropShadow_221_1654"/>
<feBlend mode="normal" in="SourceGraphic" in2="effect5_dropShadow_221_1654" result="shape"/>
</filter>
<filter id="filter4_ii_221_1654" x="424" y="151" width="95" height="40" filterUnits="userSpaceOnUse" color-interpolation-filters="sRGB">
<feFlood flood-opacity="0" result="BackgroundImageFix"/>
<feBlend mode="normal" in="SourceGraphic" in2="BackgroundImageFix" result="shape"/>
<feColorMatrix in="SourceAlpha" type="matrix" values="0 0 0 0 0 0 0 0 0 0 0 0 0 0 0 0 0 0 127 0" result="hardAlpha"/>
<feOffset dy="4"/>
<feGaussianBlur stdDeviation="2"/>
<feComposite in2="hardAlpha" operator="arithmetic" k2="-1" k3="1"/>
<feColorMatrix type="matrix" values="0 0 0 0 1 0 0 0 0 1 0 0 0 0 1 0 0 0 0.38 0"/>
<feBlend mode="normal" in2="shape" result="effect1_innerShadow_221_1654"/>
<feColorMatrix in="SourceAlpha" type="matrix" values="0 0 0 0 0 0 0 0 0 0 0 0 0 0 0 0 0 0 127 0" result="hardAlpha"/>
<feOffset dy="-4"/>
<feGaussianBlur stdDeviation="2"/>
<feComposite in2="hardAlpha" operator="arithmetic" k2="-1" k3="1"/>
<feColorMatrix type="matrix" values="0 0 0 0 0.0726701 0 0 0 0 0.629808 0 0 0 0 0.269038 0 0 0 1 0"/>
<feBlend mode="normal" in2="effect1_innerShadow_221_1654" result="effect2_innerShadow_221_1654"/>
</filter>
<filter id="filter5_dddd_221_1654" x="187" y="232" width="370" height="215" filterUnits="userSpaceOnUse" color-interpolation-filters="sRGB">
<feFlood flood-opacity="0" result="BackgroundImageFix"/>
<feColorMatrix in="SourceAlpha" type="matrix" values="0 0 0 0 0 0 0 0 0 0 0 0 0 0 0 0 0 0 127 0" result="hardAlpha"/>
<feOffset dy="4"/>
<feGaussianBlur stdDeviation="4"/>
<feColorMatrix type="matrix" values="0 0 0 0 0.380392 0 0 0 0 0.709804 0 0 0 0 0.431373 0 0 0 0.15 0"/>
<feBlend mode="normal" in2="BackgroundImageFix" result="effect1_dropShadow_221_1654"/>
<feColorMatrix in="SourceAlpha" type="matrix" values="0 0 0 0 0 0 0 0 0 0 0 0 0 0 0 0 0 0 127 0" result="hardAlpha"/>
<feOffset dy="15"/>
<feGaussianBlur stdDeviation="7.5"/>
<feColorMatrix type="matrix" values="0 0 0 0 0.380392 0 0 0 0 0.709804 0 0 0 0 0.431373 0 0 0 0.13 0"/>
<feBlend mode="normal" in2="effect1_dropShadow_221_1654" result="effect2_dropShadow_221_1654"/>
<feColorMatrix in="SourceAlpha" type="matrix" values="0 0 0 0 0 0 0 0 0 0 0 0 0 0 0 0 0 0 127 0" result="hardAlpha"/>
<feOffset dy="34"/>
<feGaussianBlur stdDeviation="10.5"/>
<feColorMatrix type="matrix" values="0 0 0 0 0.380392 0 0 0 0 0.709804 0 0 0 0 0.431373 0 0 0 0.08 0"/>
<feBlend mode="normal" in2="effect2_dropShadow_221_1654" result="effect3_dropShadow_221_1654"/>
<feColorMatrix in="SourceAlpha" type="matrix" values="0 0 0 0 0 0 0 0 0 0 0 0 0 0 0 0 0 0 127 0" result="hardAlpha"/>
<feOffset dy="61"/>
<feGaussianBlur stdDeviation="12"/>
<feColorMatrix type="matrix" values="0 0 0 0 0.380392 0 0 0 0 0.709804 0 0 0 0 0.431373 0 0 0 0.02 0"/>
<feBlend mode="normal" in2="effect3_dropShadow_221_1654" result="effect4_dropShadow_221_1654"/>
<feBlend mode="normal" in="SourceGraphic" in2="effect4_dropShadow_221_1654" result="shape"/>
</filter>
<filter id="filter6_dddd_221_1654" x="202" y="239" width="173" height="117" filterUnits="userSpaceOnUse" color-interpolation-filters="sRGB">
<feFlood flood-opacity="0" result="BackgroundImageFix"/>
<feColorMatrix in="SourceAlpha" type="matrix" values="0 0 0 0 0 0 0 0 0 0 0 0 0 0 0 0 0 0 127 0" result="hardAlpha"/>
<feOffset dy="3"/>
<feGaussianBlur stdDeviation="3.5"/>
<feColorMatrix type="matrix" values="0 0 0 0 0.431373 0 0 0 0 0.831373 0 0 0 0 0.568627 0 0 0 0.1 0"/>
<feBlend mode="normal" in2="BackgroundImageFix" result="effect1_dropShadow_221_1654"/>
<feColorMatrix in="SourceAlpha" type="matrix" values="0 0 0 0 0 0 0 0 0 0 0 0 0 0 0 0 0 0 127 0" result="hardAlpha"/>
<feOffset dx="1" dy="14"/>
<feGaussianBlur stdDeviation="7"/>
<feColorMatrix type="matrix" values="0 0 0 0 0.431373 0 0 0 0 0.831373 0 0 0 0 0.568627 0 0 0 0.09 0"/>
<feBlend mode="normal" in2="effect1_dropShadow_221_1654" result="effect2_dropShadow_221_1654"/>
<feColorMatrix in="SourceAlpha" type="matrix" values="0 0 0 0 0 0 0 0 0 0 0 0 0 0 0 0 0 0 127 0" result="hardAlpha"/>
<feOffset dx="3" dy="30"/>
<feGaussianBlur stdDeviation="9"/>
<feColorMatrix type="matrix" values="0 0 0 0 0.431373 0 0 0 0 0.831373 0 0 0 0 0.568627 0 0 0 0.05 0"/>
<feBlend mode="normal" in2="effect2_dropShadow_221_1654" result="effect3_dropShadow_221_1654"/>
<feColorMatrix in="SourceAlpha" type="matrix" values="0 0 0 0 0 0 0 0 0 0 0 0 0 0 0 0 0 0 127 0" result="hardAlpha"/>
<feOffset dx="6" dy="54"/>
<feGaussianBlur stdDeviation="11"/>
<feColorMatrix type="matrix" values="0 0 0 0 0.431373 0 0 0 0 0.831373 0 0 0 0 0.568627 0 0 0 0.01 0"/>
<feBlend mode="normal" in2="effect3_dropShadow_221_1654" result="effect4_dropShadow_221_1654"/>
<feBlend mode="normal" in="SourceGraphic" in2="effect4_dropShadow_221_1654" result="shape"/>
</filter>
<filter id="filter7_ddddd_221_1654" x="213" y="234" width="50" height="69" filterUnits="userSpaceOnUse" color-interpolation-filters="sRGB">
<feFlood flood-opacity="0" result="BackgroundImageFix"/>
<feColorMatrix in="SourceAlpha" type="matrix" values="0 0 0 0 0 0 0 0 0 0 0 0 0 0 0 0 0 0 127 0" result="hardAlpha"/>
<feOffset dy="1"/>
<feGaussianBlur stdDeviation="1.5"/>
<feColorMatrix type="matrix" values="0 0 0 0 0.447059 0 0 0 0 0.811765 0 0 0 0 0.568627 0 0 0 0.15 0"/>
<feBlend mode="normal" in2="BackgroundImageFix" result="effect1_dropShadow_221_1654"/>
<feColorMatrix in="SourceAlpha" type="matrix" values="0 0 0 0 0 0 0 0 0 0 0 0 0 0 0 0 0 0 127 0" result="hardAlpha"/>
<feOffset dy="5"/>
<feGaussianBlur stdDeviation="2.5"/>
<feColorMatrix type="matrix" values="0 0 0 0 0.447059 0 0 0 0 0.811765 0 0 0 0 0.568627 0 0 0 0.13 0"/>
<feBlend mode="normal" in2="effect1_dropShadow_221_1654" result="effect2_dropShadow_221_1654"/>
<feColorMatrix in="SourceAlpha" type="matrix" values="0 0 0 0 0 0 0 0 0 0 0 0 0 0 0 0 0 0 127 0" result="hardAlpha"/>
<feOffset dy="12"/>
<feGaussianBlur stdDeviation="3.5"/>
<feColorMatrix type="matrix" values="0 0 0 0 0.447059 0 0 0 0 0.811765 0 0 0 0 0.568627 0 0 0 0.08 0"/>
<feBlend mode="normal" in2="effect2_dropShadow_221_1654" result="effect3_dropShadow_221_1654"/>
<feColorMatrix in="SourceAlpha" type="matrix" values="0 0 0 0 0 0 0 0 0 0 0 0 0 0 0 0 0 0 127 0" result="hardAlpha"/>
<feOffset dy="21"/>
<feGaussianBlur stdDeviation="4"/>
<feColorMatrix type="matrix" values="0 0 0 0 0.447059 0 0 0 0 0.811765 0 0 0 0 0.568627 0 0 0 0.02 0"/>
<feBlend mode="normal" in2="effect3_dropShadow_221_1654" result="effect4_dropShadow_221_1654"/>
<feColorMatrix in="SourceAlpha" type="matrix" values="0 0 0 0 0 0 0 0 0 0 0 0 0 0 0 0 0 0 127 0" result="hardAlpha"/>
<feOffset dy="-2"/>
<feGaussianBlur stdDeviation="6"/>
<feComposite in2="hardAlpha" operator="out"/>
<feColorMatrix type="matrix" values="0 0 0 0 0.913725 0 0 0 0 0.972549 0 0 0 0 0.929412 0 0 0 1 0"/>
<feBlend mode="normal" in2="effect4_dropShadow_221_1654" result="effect5_dropShadow_221_1654"/>
<feBlend mode="normal" in="SourceGraphic" in2="effect5_dropShadow_221_1654" result="shape"/>
</filter>
<filter id="filter8_dddd_221_1654" x="343" y="239" width="173" height="117" filterUnits="userSpaceOnUse" color-interpolation-filters="sRGB">
<feFlood flood-opacity="0" result="BackgroundImageFix"/>
<feColorMatrix in="SourceAlpha" type="matrix" values="0 0 0 0 0 0 0 0 0 0 0 0 0 0 0 0 0 0 127 0" result="hardAlpha"/>
<feOffset dy="3"/>
<feGaussianBlur stdDeviation="3.5"/>
<feColorMatrix type="matrix" values="0 0 0 0 0.431373 0 0 0 0 0.831373 0 0 0 0 0.568627 0 0 0 0.1 0"/>
<feBlend mode="normal" in2="BackgroundImageFix" result="effect1_dropShadow_221_1654"/>
<feColorMatrix in="SourceAlpha" type="matrix" values="0 0 0 0 0 0 0 0 0 0 0 0 0 0 0 0 0 0 127 0" result="hardAlpha"/>
<feOffset dx="1" dy="14"/>
<feGaussianBlur stdDeviation="7"/>
<feColorMatrix type="matrix" values="0 0 0 0 0.431373 0 0 0 0 0.831373 0 0 0 0 0.568627 0 0 0 0.09 0"/>
<feBlend mode="normal" in2="effect1_dropShadow_221_1654" result="effect2_dropShadow_221_1654"/>
<feColorMatrix in="SourceAlpha" type="matrix" values="0 0 0 0 0 0 0 0 0 0 0 0 0 0 0 0 0 0 127 0" result="hardAlpha"/>
<feOffset dx="3" dy="30"/>
<feGaussianBlur stdDeviation="9"/>
<feColorMatrix type="matrix" values="0 0 0 0 0.431373 0 0 0 0 0.831373 0 0 0 0 0.568627 0 0 0 0.05 0"/>
<feBlend mode="normal" in2="effect2_dropShadow_221_1654" result="effect3_dropShadow_221_1654"/>
<feColorMatrix in="SourceAlpha" type="matrix" values="0 0 0 0 0 0 0 0 0 0 0 0 0 0 0 0 0 0 127 0" result="hardAlpha"/>
<feOffset dx="6" dy="54"/>
<feGaussianBlur stdDeviation="11"/>
<feColorMatrix type="matrix" values="0 0 0 0 0.431373 0 0 0 0 0.831373 0 0 0 0 0.568627 0 0 0 0.01 0"/>
<feBlend mode="normal" in2="effect3_dropShadow_221_1654" result="effect4_dropShadow_221_1654"/>
<feBlend mode="normal" in="SourceGraphic" in2="effect4_dropShadow_221_1654" result="shape"/>
</filter>
<filter id="filter9_ddddd_221_1654" x="354" y="234" width="50" height="69" filterUnits="userSpaceOnUse" color-interpolation-filters="sRGB">
<feFlood flood-opacity="0" result="BackgroundImageFix"/>
<feColorMatrix in="SourceAlpha" type="matrix" values="0 0 0 0 0 0 0 0 0 0 0 0 0 0 0 0 0 0 127 0" result="hardAlpha"/>
<feOffset dy="1"/>
<feGaussianBlur stdDeviation="1.5"/>
<feColorMatrix type="matrix" values="0 0 0 0 0.447059 0 0 0 0 0.811765 0 0 0 0 0.568627 0 0 0 0.15 0"/>
<feBlend mode="normal" in2="BackgroundImageFix" result="effect1_dropShadow_221_1654"/>
<feColorMatrix in="SourceAlpha" type="matrix" values="0 0 0 0 0 0 0 0 0 0 0 0 0 0 0 0 0 0 127 0" result="hardAlpha"/>
<feOffset dy="5"/>
<feGaussianBlur stdDeviation="2.5"/>
<feColorMatrix type="matrix" values="0 0 0 0 0.447059 0 0 0 0 0.811765 0 0 0 0 0.568627 0 0 0 0.13 0"/>
<feBlend mode="normal" in2="effect1_dropShadow_221_1654" result="effect2_dropShadow_221_1654"/>
<feColorMatrix in="SourceAlpha" type="matrix" values="0 0 0 0 0 0 0 0 0 0 0 0 0 0 0 0 0 0 127 0" result="hardAlpha"/>
<feOffset dy="12"/>
<feGaussianBlur stdDeviation="3.5"/>
<feColorMatrix type="matrix" values="0 0 0 0 0.447059 0 0 0 0 0.811765 0 0 0 0 0.568627 0 0 0 0.08 0"/>
<feBlend mode="normal" in2="effect2_dropShadow_221_1654" result="effect3_dropShadow_221_1654"/>
<feColorMatrix in="SourceAlpha" type="matrix" values="0 0 0 0 0 0 0 0 0 0 0 0 0 0 0 0 0 0 127 0" result="hardAlpha"/>
<feOffset dy="21"/>
<feGaussianBlur stdDeviation="4"/>
<feColorMatrix type="matrix" values="0 0 0 0 0.447059 0 0 0 0 0.811765 0 0 0 0 0.568627 0 0 0 0.02 0"/>
<feBlend mode="normal" in2="effect3_dropShadow_221_1654" result="effect4_dropShadow_221_1654"/>
<feColorMatrix in="SourceAlpha" type="matrix" values="0 0 0 0 0 0 0 0 0 0 0 0 0 0 0 0 0 0 127 0" result="hardAlpha"/>
<feOffset dy="-2"/>
<feGaussianBlur stdDeviation="6"/>
<feComposite in2="hardAlpha" operator="out"/>
<feColorMatrix type="matrix" values="0 0 0 0 0.913725 0 0 0 0 0.972549 0 0 0 0 0.929412 0 0 0 1 0"/>
<feBlend mode="normal" in2="effect4_dropShadow_221_1654" result="effect5_dropShadow_221_1654"/>
<feBlend mode="normal" in="SourceGraphic" in2="effect5_dropShadow_221_1654" result="shape"/>
</filter>
<filter id="filter10_dddd_221_1654" x="484" y="239" width="173" height="117" filterUnits="userSpaceOnUse" color-interpolation-filters="sRGB">
<feFlood flood-opacity="0" result="BackgroundImageFix"/>
<feColorMatrix in="SourceAlpha" type="matrix" values="0 0 0 0 0 0 0 0 0 0 0 0 0 0 0 0 0 0 127 0" result="hardAlpha"/>
<feOffset dy="3"/>
<feGaussianBlur stdDeviation="3.5"/>
<feColorMatrix type="matrix" values="0 0 0 0 0.431373 0 0 0 0 0.831373 0 0 0 0 0.568627 0 0 0 0.1 0"/>
<feBlend mode="normal" in2="BackgroundImageFix" result="effect1_dropShadow_221_1654"/>
<feColorMatrix in="SourceAlpha" type="matrix" values="0 0 0 0 0 0 0 0 0 0 0 0 0 0 0 0 0 0 127 0" result="hardAlpha"/>
<feOffset dx="1" dy="14"/>
<feGaussianBlur stdDeviation="7"/>
<feColorMatrix type="matrix" values="0 0 0 0 0.431373 0 0 0 0 0.831373 0 0 0 0 0.568627 0 0 0 0.09 0"/>
<feBlend mode="normal" in2="effect1_dropShadow_221_1654" result="effect2_dropShadow_221_1654"/>
<feColorMatrix in="SourceAlpha" type="matrix" values="0 0 0 0 0 0 0 0 0 0 0 0 0 0 0 0 0 0 127 0" result="hardAlpha"/>
<feOffset dx="3" dy="30"/>
<feGaussianBlur stdDeviation="9"/>
<feColorMatrix type="matrix" values="0 0 0 0 0.431373 0 0 0 0 0.831373 0 0 0 0 0.568627 0 0 0 0.05 0"/>
<feBlend mode="normal" in2="effect2_dropShadow_221_1654" result="effect3_dropShadow_221_1654"/>
<feColorMatrix in="SourceAlpha" type="matrix" values="0 0 0 0 0 0 0 0 0 0 0 0 0 0 0 0 0 0 127 0" result="hardAlpha"/>
<feOffset dx="6" dy="54"/>
<feGaussianBlur stdDeviation="11"/>
<feColorMatrix type="matrix" values="0 0 0 0 0.431373 0 0 0 0 0.831373 0 0 0 0 0.568627 0 0 0 0.01 0"/>
<feBlend mode="normal" in2="effect3_dropShadow_221_1654" result="effect4_dropShadow_221_1654"/>
<feBlend mode="normal" in="SourceGraphic" in2="effect4_dropShadow_221_1654" result="shape"/>
</filter>
<filter id="filter11_ddddd_221_1654" x="495" y="234" width="50" height="69" filterUnits="userSpaceOnUse" color-interpolation-filters="sRGB">
<feFlood flood-opacity="0" result="BackgroundImageFix"/>
<feColorMatrix in="SourceAlpha" type="matrix" values="0 0 0 0 0 0 0 0 0 0 0 0 0 0 0 0 0 0 127 0" result="hardAlpha"/>
<feOffset dy="1"/>
<feGaussianBlur stdDeviation="1.5"/>
<feColorMatrix type="matrix" values="0 0 0 0 0.447059 0 0 0 0 0.811765 0 0 0 0 0.568627 0 0 0 0.15 0"/>
<feBlend mode="normal" in2="BackgroundImageFix" result="effect1_dropShadow_221_1654"/>
<feColorMatrix in="SourceAlpha" type="matrix" values="0 0 0 0 0 0 0 0 0 0 0 0 0 0 0 0 0 0 127 0" result="hardAlpha"/>
<feOffset dy="5"/>
<feGaussianBlur stdDeviation="2.5"/>
<feColorMatrix type="matrix" values="0 0 0 0 0.447059 0 0 0 0 0.811765 0 0 0 0 0.568627 0 0 0 0.13 0"/>
<feBlend mode="normal" in2="effect1_dropShadow_221_1654" result="effect2_dropShadow_221_1654"/>
<feColorMatrix in="SourceAlpha" type="matrix" values="0 0 0 0 0 0 0 0 0 0 0 0 0 0 0 0 0 0 127 0" result="hardAlpha"/>
<feOffset dy="12"/>
<feGaussianBlur stdDeviation="3.5"/>
<feColorMatrix type="matrix" values="0 0 0 0 0.447059 0 0 0 0 0.811765 0 0 0 0 0.568627 0 0 0 0.08 0"/>
<feBlend mode="normal" in2="effect2_dropShadow_221_1654" result="effect3_dropShadow_221_1654"/>
<feColorMatrix in="SourceAlpha" type="matrix" values="0 0 0 0 0 0 0 0 0 0 0 0 0 0 0 0 0 0 127 0" result="hardAlpha"/>
<feOffset dy="21"/>
<feGaussianBlur stdDeviation="4"/>
<feColorMatrix type="matrix" values="0 0 0 0 0.447059 0 0 0 0 0.811765 0 0 0 0 0.568627 0 0 0 0.02 0"/>
<feBlend mode="normal" in2="effect3_dropShadow_221_1654" result="effect4_dropShadow_221_1654"/>
<feColorMatrix in="SourceAlpha" type="matrix" values="0 0 0 0 0 0 0 0 0 0 0 0 0 0 0 0 0 0 127 0" result="hardAlpha"/>
<feOffset dy="-2"/>
<feGaussianBlur stdDeviation="6"/>
<feComposite in2="hardAlpha" operator="out"/>
<feColorMatrix type="matrix" values="0 0 0 0 0.913725 0 0 0 0 0.972549 0 0 0 0 0.929412 0 0 0 1 0"/>
<feBlend mode="normal" in2="effect4_dropShadow_221_1654" result="effect5_dropShadow_221_1654"/>
<feBlend mode="normal" in="SourceGraphic" in2="effect5_dropShadow_221_1654" result="shape"/>
</filter>
<filter id="filter12_ii_221_1654" x="399" y="315" width="126" height="40" filterUnits="userSpaceOnUse" color-interpolation-filters="sRGB">
<feFlood flood-opacity="0" result="BackgroundImageFix"/>
<feBlend mode="normal" in="SourceGraphic" in2="BackgroundImageFix" result="shape"/>
<feColorMatrix in="SourceAlpha" type="matrix" values="0 0 0 0 0 0 0 0 0 0 0 0 0 0 0 0 0 0 127 0" result="hardAlpha"/>
<feOffset dy="4"/>
<feGaussianBlur stdDeviation="2"/>
<feComposite in2="hardAlpha" operator="arithmetic" k2="-1" k3="1"/>
<feColorMatrix type="matrix" values="0 0 0 0 1 0 0 0 0 1 0 0 0 0 1 0 0 0 0.38 0"/>
<feBlend mode="normal" in2="shape" result="effect1_innerShadow_221_1654"/>
<feColorMatrix in="SourceAlpha" type="matrix" values="0 0 0 0 0 0 0 0 0 0 0 0 0 0 0 0 0 0 127 0" result="hardAlpha"/>
<feOffset dy="-4"/>
<feGaussianBlur stdDeviation="2"/>
<feComposite in2="hardAlpha" operator="arithmetic" k2="-1" k3="1"/>
<feColorMatrix type="matrix" values="0 0 0 0 0.0726701 0 0 0 0 0.629808 0 0 0 0 0.269038 0 0 0 1 0"/>
<feBlend mode="normal" in2="effect1_innerShadow_221_1654" result="effect2_innerShadow_221_1654"/>
</filter>
<linearGradient id="paint0_linear_221_1654" x1="106" y1="29" x2="106" y2="362" gradientUnits="userSpaceOnUse">
<stop stop-color="white"/>
<stop offset="1" stop-color="#EFFFF5"/>
</linearGradient>
<linearGradient id="paint1_linear_221_1654" x1="106" y1="29" x2="106" y2="362" gradientUnits="userSpaceOnUse">
<stop stop-color="#E8E8E8" stop-opacity="0"/>
<stop offset="1" stop-color="#66CC8A"/>
</linearGradient>
<linearGradient id="paint2_linear_221_1654" x1="111" y1="169" x2="111" y2="201" gradientUnits="userSpaceOnUse">
<stop stop-color="white"/>
<stop offset="1" stop-color="#EFFFF5"/>
</linearGradient>
<linearGradient id="paint3_linear_221_1654" x1="111" y1="169" x2="111" y2="201" gradientUnits="userSpaceOnUse">
<stop stop-color="#E8E8E8" stop-opacity="0"/>
<stop offset="1" stop-color="#66CC8A"/>
</linearGradient>
<linearGradient id="paint4_linear_221_1654" x1="374" y1="198.147" x2="370.747" y2="198.318" gradientUnits="userSpaceOnUse">
<stop stop-color="white"/>
<stop offset="0.235577" stop-color="#4FC97A"/>
<stop offset="0.615385" stop-color="white"/>
<stop offset="0.822115" stop-color="#4FC97A"/>
<stop offset="1" stop-color="white"/>
</linearGradient>
<linearGradient id="paint5_linear_221_1654" x1="372" y1="13.5" x2="372" y2="210" gradientUnits="userSpaceOnUse">
<stop stop-color="white"/>
<stop offset="1" stop-color="#EFFFF5"/>
</linearGradient>
<linearGradient id="paint6_linear_221_1654" x1="412" y1="311.5" x2="410" y2="35.5" gradientUnits="userSpaceOnUse">
<stop stop-color="#E8E8E8" stop-opacity="0"/>
<stop offset="1" stop-color="#66CC8A" stop-opacity="0.67"/>
</linearGradient>
<linearGradient id="paint7_linear_221_1654" x1="503.939" y1="189.871" x2="503.939" y2="207.121" gradientUnits="userSpaceOnUse">
<stop stop-color="#A3FFC3"/>
<stop offset="1" stop-color="#21AA51"/>
</linearGradient>
<linearGradient id="paint8_linear_221_1654" x1="372" y1="225.21" x2="372" y2="362" gradientUnits="userSpaceOnUse">
<stop stop-color="white"/>
<stop offset="1" stop-color="#EFFFF5"/>
</linearGradient>
<radialGradient id="paint9_radial_221_1654" cx="0" cy="0" r="1" gradientUnits="userSpaceOnUse" gradientTransform="translate(515.984 269.155) rotate(-90) scale(14.8661 13.8267)">
<stop stop-color="#FFDD55"/>
<stop offset="0.1" stop-color="#FFDD55"/>
<stop offset="0.5" stop-color="#FF543E"/>
<stop offset="1" stop-color="#C837AB"/>
</radialGradient>
<radialGradient id="paint10_radial_221_1654" cx="0" cy="0" r="1" gradientUnits="userSpaceOnUse" gradientTransform="translate(509.487 254.081) rotate(78.681) scale(6.64523 27.3919)">
<stop stop-color="#3771C8"/>
<stop offset="0.128" stop-color="#3771C8"/>
<stop offset="1" stop-color="#6600FF" stop-opacity="0"/>
</radialGradient>
<linearGradient id="paint11_linear_221_1654" x1="310" y1="260.5" x2="675" y2="260.5" gradientUnits="userSpaceOnUse">
<stop stop-color="white" stop-opacity="0"/>
<stop offset="1" stop-color="white"/>
</linearGradient>
<linearGradient id="paint12_linear_221_1654" x1="412" y1="432.657" x2="411.031" y2="240.52" gradientUnits="userSpaceOnUse">
<stop stop-color="#E8E8E8" stop-opacity="0"/>
<stop offset="1" stop-color="#66CC8A" stop-opacity="0.67"/>
</linearGradient>
<linearGradient id="paint13_linear_221_1654" x1="509.939" y1="353.871" x2="509.939" y2="371.121" gradientUnits="userSpaceOnUse">
<stop stop-color="#A3FFC3"/>
<stop offset="1" stop-color="#21AA51"/>
</linearGradient>
<clipPath id="clip0_221_1654">
<rect width="562" height="392" rx="14" fill="white"/>
</clipPath>
<clipPath id="clip1_221_1654">
<rect x="211" y="236" width="322" height="126" rx="18" fill="white"/>
</clipPath>
<clipPath id="clip2_221_1654">
<rect x="218" y="243" width="129" height="37" rx="18.5" fill="white"/>
</clipPath>
<clipPath id="clip3_221_1654">
<rect width="15" height="15" fill="white" transform="translate(230 253)"/>
</clipPath>
<clipPath id="clip4_221_1654">
<rect x="359" y="243" width="129" height="37" rx="18.5" fill="white"/>
</clipPath>
<clipPath id="clip5_221_1654">
<rect x="500" y="243" width="129" height="37" rx="18.5" fill="white"/>
</clipPath>
<clipPath id="clip6_221_1654">
<rect width="15" height="15" fill="white" transform="translate(512 253)"/>
</clipPath>
</defs>
</svg>
